<?xml version="1.0" encoding="UTF-8"?>
<mxfile host="app.diagrams.net">
  <diagram name="Days to Seconds Flowchart" id="daysSecondsFlow">
    <mxGraphModel dx="1200" dy="800" grid="1" gridSize="10" guides="1" tooltips="1" connect="1" arrows="1" fold="1" page="1" pageScale="1" pageWidth="827" pageHeight="1169">
      <root>
        <mxCell id="0"/>
        <mxCell id="1" parent="0"/>

        <!-- Start -->
        <mxCell id="start" value="Start" style="ellipse;whiteSpace=wrap;html=1;" vertex="1" parent="1">
          <mxGeometry x="240" y="20" width="120" height="60" as="geometry"/>
        </mxCell>

        <!-- Input days -->
        <mxCell id="input_days" value="รับค่าจำนวนวัน days" style="shape=parallelogram;whiteSpace=wrap;html=1;" vertex="1" parent="1">
          <mxGeometry x="220" y="120" width="160" height="60" as="geometry"/>
        </mxCell>

        <!-- Process: แปลงเป็นวินาที -->
        <mxCell id="convert_seconds" value="คำนวณ seconds = days * 24 * 60 * 60" style="rounded=0;whiteSpace=wrap;html=1;" vertex="1" parent="1">
          <mxGeometry x="200" y="220" width="200" height="60" as="geometry"/>
        </mxCell>

        <!-- Output -->
        <mxCell id="output" value="แสดงผล: days day(s) = seconds second(s)" style="shape=parallelogram;whiteSpace=wrap;html=1;" vertex="1" parent="1">
          <mxGeometry x="180" y="320" width="240" height="60" as="geometry"/>
        </mxCell>

        <!-- Stop -->
        <mxCell id="stop" value="Stop" style="ellipse;whiteSpace=wrap;html=1;" vertex="1" parent="1">
          <mxGeometry x="240" y="420" width="120" height="60" as="geometry"/>
        </mxCell>

        <!-- Edges -->
        <mxCell id="e1" edge="1" parent="1" source="start" target="input_days"><mxGeometry relative="1" as="geometry"/></mxCell>
        <mxCell id="e2" edge="1" parent="1" source="input_days" target="convert_seconds"><mxGeometry relative="1" as="geometry"/></mxCell>
        <mxCell id="e3" edge="1" parent="1" source="convert_seconds" target="output"><mxGeometry relative="1" as="geometry"/></mxCell>
        <mxCell id="e4" edge="1" parent="1" source="output" target="stop"><mxGeometry relative="1" as="geometry"/></mxCell>

      </root>
    </mxGraphModel>
  </diagram>
</mxfile>
